<svg width="1200" height="630" viewBox="0 0 1200 630" fill="none" xmlns="http://www.w3.org/2000/svg">
  <style>
    .bg  { fill: var(--brand-500); }
    .ico { stroke: var(--brand-100); stroke-width: 1.6; stroke-linecap: round; stroke-linejoin: round; fill: none; }
    .txt { fill: var(--brand-50); font-family: 'Outfit Variable', Outfit, system-ui, -apple-system, sans-serif; font-weight: 800; }
    .cor { stroke: var(--brand-300); stroke-width: 1.5; fill: none; stroke-opacity: 0.45; }
  </style>
  <rect width="1200" height="630" class="bg"/>
  <!-- Lucide RefreshCw -->
  <g transform="translate(540, 205) scale(5)" class="ico" opacity="0.9">
    <path d="M3 12a9 9 0 0 1 9-9 9.75 9.75 0 0 1 6.74 2.74L21 8"/>
    <path d="M21 3v5h-5"/>
    <path d="M21 12a9 9 0 0 1-9 9 9.75 9.75 0 0 1-6.74-2.74L3 16"/>
    <path d="M8 16H3v5"/>
  </g>
  <text x="600" y="435" font-size="96" text-anchor="middle" letter-spacing="-2" class="txt">updating</text>
  <path d="M 36 60 L 36 36 L 60 36" class="cor"/>
  <path d="M 1140 36 L 1164 36 L 1164 60" class="cor"/>
  <path d="M 36 570 L 36 594 L 60 594" class="cor"/>
  <path d="M 1140 594 L 1164 594 L 1164 570" class="cor"/>
</svg>
